<?xml version="1.0" encoding="UTF-8"?>
<svg version="1.1" xmlns="http://www.w3.org/2000/svg" width="1206" height="1188">
<path d="M0 0 C397.98 0 795.96 0 1206 0 C1206 392.04 1206 784.08 1206 1188 C808.02 1188 410.04 1188 0 1188 C0 795.96 0 403.92 0 0 Z " fill="#FEFEFE" transform="translate(0,0)"/>
<path d="M0 0 C397.98 0 795.96 0 1206 0 C1206 392.04 1206 784.08 1206 1188 C808.02 1188 410.04 1188 0 1188 C0 795.96 0 403.92 0 0 Z M129 10 C127.97447021 10.32460205 127.97447021 10.32460205 126.92822266 10.65576172 C87.68625768 23.4493504 54.90824259 52.53771977 36.01123047 89.00146484 C20.4626389 119.73076724 15.25323242 153.99829179 21 188 C21.15984375 189.20011719 21.3196875 190.40023437 21.484375 191.63671875 C25.22576269 216.23381484 37.61551957 238.18605921 50.1875 259.2578125 C53.57840615 264.95109478 56.88086378 270.69499773 60.1875 276.4375 C60.8259082 277.54569092 61.46431641 278.65388184 62.12207031 279.7956543 C63.4311599 282.06826127 64.74007787 284.34096712 66.04882812 286.61376953 C67.94169137 289.89880622 69.83742707 293.18216436 71.734375 296.46484375 C78.54879325 308.25930572 85.32987151 320.07191239 92.07736206 331.90472412 C97.23335445 340.94329428 102.45320673 349.94277138 107.71118164 358.92236328 C112.53872836 367.17923642 117.28548671 375.48094031 122.02050781 383.79101562 C126.63502804 391.88744133 131.29095255 399.95806509 136 408 C141.4035646 417.22800529 146.72652361 426.4999467 152.02050781 435.79101562 C156.63502852 443.88744218 161.29103794 451.95801457 166 460 C171.0318979 468.5951729 176.00389124 477.22312222 180.9375 485.875 C186.12442426 494.97079987 191.32681506 504.05712263 196.5625 513.125 C197.17802734 514.19105469 197.79355469 515.25710938 198.42773438 516.35546875 C200.28470194 519.57057523 202.14223579 522.78535378 204 526 C212.52377932 540.74941488 221.02399001 555.51151145 229.45874023 570.31201172 C233.59636918 577.56692957 237.77809566 584.79381428 242 592 C245.77016416 590.74327861 246.00711403 589.70437669 247.86328125 586.27734375 C248.41290527 585.27662842 248.9625293 584.27591309 249.52880859 583.24487305 C250.11742676 582.15343994 250.70604492 581.06200684 251.3125 579.9375 C252.58016929 577.62915499 253.84955933 575.32183508 255.12109375 573.015625 C255.44482971 572.42641769 255.76856567 571.83721039 256.10211182 571.23014832 C259.26182205 565.49105165 262.55419029 559.83440024 265.875 554.1875 C270.95240312 545.53189319 275.96775021 536.84276382 280.9375 528.125 C287.96561901 515.79951217 295.04240601 503.50277644 302.14111328 491.21777344 C305.26324605 485.81329355 308.38141204 480.40652588 311.5 475 C312.74998122 472.8333225 313.99998121 470.66665583 315.25 468.5 C315.86875 467.4275 316.4875 466.355 317.125 465.25 C322.75 455.49999999 322.75 455.49999999 324.62475586 452.25048828 C325.8756448 450.08223736 327.12645852 447.91394303 328.37719727 445.74560547 C331.48798335 440.35282085 334.60004238 434.96077907 337.71484375 429.5703125 C344.53502637 417.76370516 351.3232326 405.93973 358.07736206 394.09527588 C363.23335445 385.05670572 368.45320673 376.05722862 373.71118164 367.07763672 C378.19189393 359.41397748 382.60515756 351.71305362 387 344 C391.95378823 335.30598314 396.94378369 326.63502771 402 318 C407.0318979 309.4048271 412.00389124 300.77687778 416.9375 292.125 C423.96603507 279.79974804 431.04240434 267.50277933 438.14111328 255.21777344 C440.63725693 250.89689436 443.13082593 246.57453268 445.62402344 242.25195312 C446.87031762 240.09153687 448.11705931 237.9313787 449.36425781 235.77148438 C452.56038032 230.23555266 455.74913129 224.695569 458.92578125 219.1484375 C478.43261374 185.11384033 478.43261374 185.11384033 491 171 C491.58007812 170.28714844 492.16015625 169.57429687 492.7578125 168.83984375 C506.29880806 152.27083662 525.75230976 140.72757863 545 132 C546.19882812 131.45601562 547.39765625 130.91203125 548.6328125 130.3515625 C587.23919443 113.92508898 630.38063704 115.67407804 669 131 C678.89371285 135.0685684 688.23696489 139.82903383 697 146 C698.44246094 147.01513672 698.44246094 147.01513672 699.9140625 148.05078125 C733.80781738 172.70476575 756.89577596 209.08331262 764.25 250.4375 C764.51706035 252.28928638 764.76826951 254.14346155 765 256 C765.11085938 256.81597656 765.22171875 257.63195312 765.3359375 258.47265625 C770.0809621 299.95956055 756.94397075 336.88074436 735.87353516 371.86572266 C732.7057762 377.16513489 729.63777904 382.52157289 726.5625 387.875 C725.30361772 390.06002969 724.04450237 392.24492511 722.78515625 394.4296875 C722.16012207 395.51475586 721.53508789 396.59982422 720.89111328 397.71777344 C717.76319852 403.14659942 714.63141552 408.57319281 711.5 414 C710.24998121 416.16665583 708.99998122 418.3333225 707.75 420.5 C705.25 424.83333333 702.75 429.16666667 700.25 433.5 C699.63116943 434.57266113 699.01233887 435.64532227 698.37475586 436.75048828 C697.12564482 438.91557071 695.87645871 441.08060982 694.62719727 443.24560547 C691.48797691 448.68615706 688.35009437 454.12747216 685.21484375 459.5703125 C678.59777108 471.0544882 671.95366023 482.52196894 665.26708984 493.96582031 C659.10080946 504.52620282 652.9950405 515.12126766 646.89111328 525.71777344 C643.14561565 532.21847963 639.39502735 538.71625032 635.64501953 545.21435547 C632.74705111 550.23653702 629.85005713 555.25927066 626.95724487 560.28442383 C625.94052802 562.05045522 624.92344342 563.81627431 623.90625 565.58203125 C622.63599127 567.78734155 621.36640982 569.99304216 620.09765625 572.19921875 C619.51757812 573.20597656 618.9375 574.21273437 618.33984375 575.25 C617.7866748 576.21550781 617.23350586 577.18101562 616.66357422 578.17578125 C615.54711183 580.07117851 614.39150682 581.94401437 613.19970703 583.79296875 C612.64009277 584.66566406 612.08047852 585.53835938 611.50390625 586.4375 C610.99802979 587.19933594 610.49215332 587.96117187 609.97094727 588.74609375 C608.72828103 591.63075423 609.06656009 593.03807775 610 596 C610.7790836 597.85276674 610.7790836 597.85276674 611.79296875 599.58203125 C612.16832764 600.25363281 612.54368652 600.92523437 612.93041992 601.6171875 C613.55267456 602.70386719 613.55267456 602.70386719 614.1875 603.8125 C614.84745972 604.98232422 614.84745972 604.98232422 615.52075195 606.17578125 C620.36265161 614.71981924 625.33372771 623.19012053 630.296875 631.6640625 C634.03634615 638.05282035 637.74119496 644.46119232 641.4375 650.875 C642.05898926 651.95313965 642.68047852 653.0312793 643.32080078 654.14208984 C645.8464552 658.52463201 648.37095429 662.90783923 650.89550781 667.29101562 C652.78398493 670.56931062 654.67301666 673.84728485 656.5625 677.125 C657.18447266 678.20394531 657.80644531 679.28289063 658.44726562 680.39453125 C662.58688448 687.56871951 666.75524921 694.7255998 670.9375 701.875 C676.35921178 711.14499777 681.70204915 720.45831752 687.01922607 729.78845215 C692.22045129 738.9128284 697.48027878 748.00132774 702.78344727 757.06689453 C708.93335892 767.58347855 715.01491822 778.13914401 721.09570312 788.69580078 C723.65437127 793.13541804 726.21738031 797.57252125 728.78100586 802.00927734 C730.04683063 804.20246586 731.31068264 806.39679421 732.57250977 808.59228516 C735.44603349 813.59133065 738.33499781 818.57772601 741.29296875 823.52734375 C751.41327954 840.58179544 759.67009141 858.31988931 763 878 C763.17442627 878.99298096 763.34885254 879.98596191 763.52856445 881.0090332 C765.04626455 890.44493408 765.35950624 899.65888341 765.3125 909.1875 C765.30976578 910.34011826 765.30976578 910.34011826 765.30697632 911.51602173 C765.26032588 923.20978261 764.86262454 934.60303518 762 946 C761.75056641 946.99507568 761.75056641 946.99507568 761.49609375 948.01025391 C750.56235642 989.6698179 723.68566905 1024.6892317 686.66796875 1046.421875 C679.37576075 1050.54855651 671.74733483 1053.83648843 664 1057 C662.57880859 1057.61294922 662.57880859 1057.61294922 661.12890625 1058.23828125 C652.8783732 1061.57195997 644.07006188 1063.00911292 635.34765625 1064.57714844 C633.3643345 1064.93437736 631.38479435 1065.31250718 629.40625 1065.6953125 C612.02975384 1068.68980577 594.18006645 1067.60289218 577 1064 C576.30326172 1063.85546387 575.60652344 1063.71092773 574.88867188 1063.56201172 C539.78717388 1056.05095658 507.02640379 1036.44400195 485 1008 C484.29198242 1007.09314453 483.58396484 1006.18628906 482.85449219 1005.25195312 C477.60173723 998.40339476 473.08992081 991.39931046 468.875 983.875 C467.90291506 982.16523359 466.93081679 980.45547461 465.95794678 978.74615479 C464.96007708 976.99067382 463.96563872 975.23328353 462.97167969 973.47558594 C459.84587438 967.96556063 456.67147219 962.48382198 453.5 957 C452.25366654 954.83998204 451.00757343 952.67982539 449.76171875 950.51953125 C447.22384007 946.12040925 444.68463417 941.72205679 442.14453125 937.32421875 C435.92273162 926.5498828 429.71627306 915.76738664 423.55126953 904.96044922 C417.71105579 894.72988537 411.81517067 884.53145925 405.92333984 874.33056641 C402.78041206 868.88809106 399.64032882 863.44397523 396.5 858 C395.2500141 855.8333252 394.00001408 853.66665854 392.75 851.5 C365.25 803.83333333 337.75 756.16666667 310.25 708.5 C309.63133057 707.42766113 309.01266113 706.35532227 308.37524414 705.25048828 C307.1243552 703.08223736 305.87354148 700.91394303 304.62280273 698.74560547 C301.51201665 693.35282085 298.39995762 687.96077907 295.28515625 682.5703125 C288.82980728 671.39550673 282.3970725 660.20824933 276 649 C268.37476333 635.64261045 260.72186908 622.30185526 253 609 C252.26185059 607.72261963 252.26185059 607.72261963 251.50878906 606.41943359 C250.24295167 604.23319136 248.96758031 602.05292369 247.6875 599.875 C247.33244385 599.25906982 246.9773877 598.64313965 246.61157227 598.00854492 C245.79721226 596.63740986 244.90695348 595.31172747 244 594 C243.34 594 242.68 594 242 594 C241.38294189 595.0837793 241.38294189 595.0837793 240.75341797 596.18945312 C233.55589999 608.82451934 226.34813002 621.45170415 219 634 C213.9680751 642.59515717 208.99610865 651.22312241 204.0625 659.875 C197.03396493 672.20025196 189.95759566 684.49722067 182.85888672 696.78222656 C179.73675397 702.18670641 176.61854119 707.59344718 173.5 713 C169.76363085 719.47766885 166.02651653 725.95489983 162.28515625 732.4296875 C155.46497363 744.23629484 148.6767674 756.06027 141.92263794 767.90472412 C136.76664555 776.94329428 131.54679327 785.94277138 126.28881836 794.92236328 C121.80810607 802.58602252 117.39484244 810.28694638 113 818 C108.04621177 826.69401686 103.05621631 835.36497229 98 844 C92.9681021 852.5951729 87.99610876 861.22312222 83.0625 869.875 C77.87557539 878.97080049 72.67306884 888.05705511 67.4375 897.125 C66.82632324 898.18380371 66.21514648 899.24260742 65.58544922 900.33349609 C62.41983133 905.81550122 59.25030093 911.29522486 56.078125 916.7734375 C52.37292137 923.1751418 48.68236747 929.58513749 45 936 C44.25097412 937.2998584 44.25097412 937.2998584 43.48681641 938.62597656 C21.82906139 976.31062085 11.67918053 1019.98266323 23 1063 C27.00913811 1076.6128238 32.08458771 1089.60907004 39 1102 C39.34643555 1102.63341309 39.69287109 1103.26682617 40.04980469 1103.91943359 C45.04015666 1112.9710098 50.78643786 1120.86318734 57.69628906 1128.54052734 C58.90068699 1129.88882151 60.07302499 1131.26557129 61.2421875 1132.64453125 C86.18796528 1161.65656218 124.66126826 1179.41708626 162.40538669 1182.59593403 C175.68758116 1183.52713495 189.04809825 1183.289085 202.35629082 1183.27553919 C206.884206 1183.27314949 211.4121012 1183.28237209 215.94000852 1183.29002339 C223.85819628 1183.3018116 231.77636106 1183.30623848 239.69455719 1183.30570221 C251.46987837 1183.30490563 263.24517073 1183.31549303 275.02048417 1183.32811778 C298.50325575 1183.35279619 321.98602021 1183.36163354 345.46880297 1183.36665427 C346.68336576 1183.36691544 347.89792856 1183.36717662 349.14929628 1183.36744571 C350.3663957 1183.36770598 351.58349512 1183.36796626 352.83747634 1183.36823442 C366.34976535 1183.37132179 379.8620524 1183.37782822 393.37434006 1183.3844471 C434.21155768 1183.40408678 475.04877321 1183.42049646 515.88599586 1183.42332363 C517.19084282 1183.42341769 518.49568978 1183.42351175 519.84007755 1183.42360866 C525.1276481 1183.42398713 530.41521865 1183.42435113 535.7027892 1183.42471164 C539.68223056 1183.42498336 543.66167192 1183.42526004 547.64111328 1183.42553711 C549.61355256 1183.42566914 549.61355256 1183.42566914 551.6258391 1183.42580384 C592.94280469 1183.42870931 634.25970993 1183.45081004 675.57666016 1183.48706055 C722.03460758 1183.52782097 768.49252312 1183.55148244 814.9504894 1183.55178314 C819.90791472 1183.55187996 824.86534003 1183.55204668 829.82276535 1183.55226326 C831.65362695 1183.55232943 831.65362695 1183.55232943 833.52147564 1183.55239694 C853.12798013 1183.55351484 872.73443756 1183.57089467 892.34092691 1183.59408258 C912.05786122 1183.61696802 931.77473224 1183.62112256 951.49167497 1183.60653328 C963.19054323 1183.59840604 974.88921152 1183.60398678 986.58805536 1183.62971413 C994.41990835 1183.64554132 1002.2516204 1183.64291273 1010.08347019 1183.6258074 C1014.5342627 1183.61659281 1018.98467197 1183.61486202 1023.43543358 1183.63577347 C1074.25604595 1183.85876991 1118.06462132 1170.50642024 1154.78125 1134.25390625 C1170.04931752 1117.99534701 1181.48795244 1098.96176147 1189 1078 C1189.45117188 1076.77796875 1189.90234375 1075.5559375 1190.3671875 1074.296875 C1203.52573759 1037.07920078 1200.81374566 993.27389179 1183.88378906 957.65136719 C1177.75408074 945.22999668 1170.76434296 933.28964515 1163.734375 921.36328125 C1159.78233004 914.65212342 1155.91738026 907.892208 1152.0625 901.125 C1150.71005206 898.75236641 1149.35715664 896.37998849 1148.00390625 894.0078125 C1147.66986282 893.42224075 1147.3358194 892.83666901 1146.99165344 892.23335266 C1143.51521102 886.14355875 1140.0089029 880.07112773 1136.5 874 C1131.307595 865.01459064 1126.14333816 856.01354666 1121 847 C1113.37661796 833.64161987 1105.69583975 820.31676114 1098 807 C1089.96425328 793.09506913 1081.9494872 779.17876895 1073.99002075 765.2300415 C1069.18300981 756.80668977 1064.35244539 748.39728444 1059.5 740 C1054.30767467 731.01454438 1049.14333837 722.01354703 1044 713 C1036.37661796 699.64161987 1028.69583975 686.31676114 1021 673 C1007.575511 649.77047349 1007.575511 649.77047349 1001.9921875 639.984375 C1001.65740387 639.39785156 1001.32262024 638.81132813 1000.97769165 638.20703125 C999.29774898 635.2629278 997.6205774 632.3172952 995.94775391 629.36914062 C992.65165755 623.57043191 989.30263314 617.81229814 985.84375 612.109375 C985.18640869 611.01641113 984.52906738 609.92344727 983.85180664 608.79736328 C982.60733625 606.73504365 981.34938574 604.68077773 980.07592773 602.63623047 C979.24750366 601.25781982 979.24750366 601.25781982 978.40234375 599.8515625 C977.91241943 599.05572754 977.42249512 598.25989258 976.91772461 597.43994141 C975.6997927 594.2018431 976.10217168 592.3150584 977 589 C978.14477539 586.56005859 978.14477539 586.56005859 979.59765625 584.1484375 C980.41641235 582.77002686 980.41641235 582.77002686 981.25170898 581.36376953 C981.84927002 580.37747559 982.44683105 579.39118164 983.0625 578.375 C984.34769089 576.21433621 985.63149008 574.05284415 986.9140625 571.890625 C987.58598633 570.76205078 988.25791016 569.63347656 988.95019531 568.47070312 C992.00872697 563.31104266 994.97211602 558.09667193 997.93746948 552.88311768 C999.62108919 549.92320645 1001.30851628 546.96546853 1002.99609375 544.0078125 C1003.33018753 543.42216522 1003.66428131 542.83651794 1004.00849915 542.23312378 C1007.48483906 536.1433768 1010.99114299 530.07104833 1014.5 524 C1019.69240439 515.01459169 1024.85681108 506.01363123 1030 497 C1035.75584544 486.91266526 1041.54464237 476.84485047 1047.35546875 466.7890625 C1051.9270468 458.8726611 1056.46933782 450.93985029 1061 443 C1069.23573112 428.56860638 1077.54048957 414.17743616 1085.85449219 399.79101562 C1092.9312979 387.54341395 1099.98876447 375.28524882 1107 363 C1115.23597059 348.56874211 1123.54048868 334.1774377 1131.85449219 319.79101562 C1139.60517735 306.3771523 1147.32712427 292.94751192 1155.00170898 279.48999023 C1158.99300429 272.4942098 1163.01245602 265.51555624 1167.05297852 258.5480957 C1181.21513648 234.10394468 1192.71891199 211.22138282 1197 183 C1197.20109375 181.71222656 1197.20109375 181.71222656 1197.40625 180.3984375 C1200.25010073 158.04261091 1197.79128698 134.38946919 1191 113 C1190.67539795 111.97447021 1190.67539795 111.97447021 1190.34423828 110.92822266 C1177.2629674 70.80384578 1147.4609643 38.18170148 1110.18701172 19.07080078 C1104.59863247 16.33462849 1098.83773482 14.14502814 1093 12 C1092.11828125 11.63390625 1091.2365625 11.2678125 1090.328125 10.890625 C1084.40168588 8.49796324 1078.36737213 7.0953468 1072.125 5.8125 C1071.32296143 5.64540527 1070.52092285 5.47831055 1069.69458008 5.30615234 C1057.80093855 2.99201029 1045.79413132 2.85251852 1033.71575165 2.87136555 C1032.20617819 2.87001615 1030.69660507 2.86823071 1029.18703258 2.86605331 C1025.05610327 2.86135204 1020.92519616 2.8628156 1016.7942658 2.86533108 C1012.29336427 2.86697086 1007.79246736 2.86281777 1003.29156733 2.85942191 C995.4085732 2.85427727 987.52558521 2.85284908 979.64258957 2.85387802 C967.91979807 2.85540441 956.19701335 2.85123795 944.47422317 2.8460034 C922.31707395 2.83633594 900.15992705 2.83351938 878.00277597 2.83294634 C860.88989651 2.83248665 843.77701796 2.83042756 826.66413879 2.82724571 C821.73673455 2.82634816 816.80933031 2.82545834 811.88192606 2.82457083 C810.65692633 2.82434979 809.4319266 2.82412874 808.16980566 2.82390099 C773.71556745 2.81774732 739.26132955 2.81380037 704.80709076 2.81424427 C702.85884691 2.81426764 702.85884691 2.81426764 700.8712446 2.81429148 C694.28836919 2.81437459 687.70549378 2.81447363 681.12261838 2.81457619 C679.16157636 2.8146061 679.16157636 2.8146061 677.16091733 2.81463663 C674.51711386 2.81467706 671.87331039 2.81471886 669.22950692 2.81476202 C628.10189431 2.81537469 586.97428994 2.80786951 545.84667969 2.79418945 C499.62983375 2.77882289 453.41299323 2.77022358 407.19614458 2.77115268 C402.2662255 2.7712273 397.33630641 2.77127601 392.40638733 2.77130699 C391.19253529 2.77131865 389.97868326 2.7713303 388.72804783 2.77134231 C369.20920032 2.77137306 349.69035997 2.76499205 330.17151459 2.75637473 C310.54782021 2.74789042 290.92413629 2.74691439 271.30044109 2.75348405 C259.6492945 2.75717453 247.99817975 2.75536234 236.34703655 2.74554171 C228.55436621 2.73952955 220.76171886 2.7408509 212.96904956 2.74801221 C208.53566728 2.75188328 204.10234649 2.75269966 199.66896862 2.74455485 C163.87656166 2.67095834 163.87656166 2.67095834 129 10 Z " fill="#000000" transform="translate(0,0)"/>
<path d="M0 0 C397.98 0 795.96 0 1206 0 C1206 392.04 1206 784.08 1206 1188 C808.02 1188 410.04 1188 0 1188 C0 795.96 0 403.92 0 0 Z M129 10 C127.97447021 10.32460205 127.97447021 10.32460205 126.92822266 10.65576172 C87.68625768 23.4493504 54.90824259 52.53771977 36.01123047 89.00146484 C20.4626389 119.73076724 15.25323242 153.99829179 21 188 C21.15984375 189.20011719 21.3196875 190.40023437 21.484375 191.63671875 C25.22576269 216.23381484 37.61551957 238.18605921 50.1875 259.2578125 C53.57840615 264.95109478 56.88086378 270.69499773 60.1875 276.4375 C60.8259082 277.54569092 61.46431641 278.65388184 62.12207031 279.7956543 C63.4311599 282.06826127 64.74007787 284.34096712 66.04882812 286.61376953 C67.94169137 289.89880622 69.83742707 293.18216436 71.734375 296.46484375 C78.54879325 308.25930572 85.32987151 320.07191239 92.07736206 331.90472412 C97.23335445 340.94329428 102.45320673 349.94277138 107.71118164 358.92236328 C112.53872836 367.17923642 117.28548671 375.48094031 122.02050781 383.79101562 C126.63502804 391.88744133 131.29095255 399.95806509 136 408 C141.4035646 417.22800529 146.72652361 426.4999467 152.02050781 435.79101562 C156.63502852 443.88744218 161.29103794 451.95801457 166 460 C171.0318979 468.5951729 176.00389124 477.22312222 180.9375 485.875 C186.12442426 494.97079987 191.32681506 504.05712263 196.5625 513.125 C197.17802734 514.19105469 197.79355469 515.25710938 198.42773438 516.35546875 C200.28470194 519.57057523 202.14223579 522.78535378 204 526 C212.52377932 540.74941488 221.02399001 555.51151145 229.45874023 570.31201172 C230.6937401 572.47746026 231.93135686 574.64141891 233.171875 576.80371094 C234.4424345 579.02515391 235.70207942 581.25286073 236.953125 583.48535156 C237.57703125 584.58588867 238.2009375 585.68642578 238.84375 586.8203125 C239.40255859 587.81562988 239.96136719 588.81094727 240.53710938 589.83642578 C241.01986328 590.55040527 241.50261719 591.26438477 242 592 C242.66 592 243.32 592 244 592 C244 592.66 244 593.32 244 594 C243.34 594 242.68 594 242 594 C241.38294189 595.0837793 241.38294189 595.0837793 240.75341797 596.18945312 C233.55589999 608.82451934 226.34813002 621.45170415 219 634 C213.9680751 642.59515717 208.99610865 651.22312241 204.0625 659.875 C197.03396493 672.20025196 189.95759566 684.49722067 182.85888672 696.78222656 C179.73675397 702.18670641 176.61854119 707.59344718 173.5 713 C169.76363085 719.47766885 166.02651653 725.95489983 162.28515625 732.4296875 C155.46497363 744.23629484 148.6767674 756.06027 141.92263794 767.90472412 C136.76664555 776.94329428 131.54679327 785.94277138 126.28881836 794.92236328 C121.80810607 802.58602252 117.39484244 810.28694638 113 818 C108.04621177 826.69401686 103.05621631 835.36497229 98 844 C92.9681021 852.5951729 87.99610876 861.22312222 83.0625 869.875 C77.87557539 878.97080049 72.67306884 888.05705511 67.4375 897.125 C66.82632324 898.18380371 66.21514648 899.24260742 65.58544922 900.33349609 C62.41983133 905.81550122 59.25030093 911.29522486 56.078125 916.7734375 C52.37292137 923.1751418 48.68236747 929.58513749 45 936 C44.25097412 937.2998584 44.25097412 937.2998584 43.48681641 938.62597656 C21.82906139 976.31062085 11.67918053 1019.98266323 23 1063 C27.00913811 1076.6128238 32.08458771 1089.60907004 39 1102 C39.34643555 1102.63341309 39.69287109 1103.26682617 40.04980469 1103.91943359 C45.04015666 1112.9710098 50.78643786 1120.86318734 57.69628906 1128.54052734 C58.90068699 1129.88882151 60.07302499 1131.26557129 61.2421875 1132.64453125 C86.18796528 1161.65656218 124.66126826 1179.41708626 162.40538669 1182.59593403 C175.68758116 1183.52713495 189.04809825 1183.289085 202.35629082 1183.27553919 C206.884206 1183.27314949 211.4121012 1183.28237209 215.94000852 1183.29002339 C223.85819628 1183.3018116 231.77636106 1183.30623848 239.69455719 1183.30570221 C251.46987837 1183.30490563 263.24517073 1183.31549303 275.02048417 1183.32811778 C298.50325575 1183.35279619 321.98602021 1183.36163354 345.46880297 1183.36665427 C346.68336576 1183.36691544 347.89792856 1183.36717662 349.14929628 1183.36744571 C350.3663957 1183.36770598 351.58349512 1183.36796626 352.83747634 1183.36823442 C366.34976535 1183.37132179 379.8620524 1183.37782822 393.37434006 1183.3844471 C434.21155768 1183.40408678 475.04877321 1183.42049646 515.88599586 1183.42332363 C517.19084282 1183.42341769 518.49568978 1183.42351175 519.84007755 1183.42360866 C525.1276481 1183.42398713 530.41521865 1183.42435113 535.7027892 1183.42471164 C539.68223056 1183.42498336 543.66167192 1183.42526004 547.64111328 1183.42553711 C549.61355256 1183.42566914 549.61355256 1183.42566914 551.6258391 1183.42580384 C592.94280469 1183.42870931 634.25970993 1183.45081004 675.57666016 1183.48706055 C722.03460758 1183.52782097 768.49252312 1183.55148244 814.9504894 1183.55178314 C819.90791472 1183.55187996 824.86534003 1183.55204668 829.82276535 1183.55226326 C831.65362695 1183.55232943 831.65362695 1183.55232943 833.52147564 1183.55239694 C853.12798013 1183.55351484 872.73443756 1183.57089467 892.34092691 1183.59408258 C912.05786122 1183.61696802 931.77473224 1183.62112256 951.49167497 1183.60653328 C963.19054323 1183.59840604 974.88921152 1183.60398678 986.58805536 1183.62971413 C994.41990835 1183.64554132 1002.2516204 1183.64291273 1010.08347019 1183.6258074 C1014.5342627 1183.61659281 1018.98467197 1183.61486202 1023.43543358 1183.63577347 C1074.25604595 1183.85876991 1118.06462132 1170.50642024 1154.78125 1134.25390625 C1170.04931752 1117.99534701 1181.48795244 1098.96176147 1189 1078 C1189.45117188 1076.77796875 1189.90234375 1075.5559375 1190.3671875 1074.296875 C1203.52573759 1037.07920078 1200.81374566 993.27389179 1183.88378906 957.65136719 C1177.75408074 945.22999668 1170.76434296 933.28964515 1163.734375 921.36328125 C1159.78233004 914.65212342 1155.91738026 907.892208 1152.0625 901.125 C1150.71005206 898.75236641 1149.35715664 896.37998849 1148.00390625 894.0078125 C1147.66986282 893.42224075 1147.3358194 892.83666901 1146.99165344 892.23335266 C1143.51521102 886.14355875 1140.0089029 880.07112773 1136.5 874 C1131.307595 865.01459064 1126.14333816 856.01354666 1121 847 C1113.37661796 833.64161987 1105.69583975 820.31676114 1098 807 C1089.96425328 793.09506913 1081.9494872 779.17876895 1073.99002075 765.2300415 C1069.18300981 756.80668977 1064.35244539 748.39728444 1059.5 740 C1054.30767467 731.01454438 1049.14333837 722.01354703 1044 713 C1036.37661796 699.64161987 1028.69583975 686.31676114 1021 673 C1007.575511 649.77047349 1007.575511 649.77047349 1001.9921875 639.984375 C1001.65740387 639.39785156 1001.32262024 638.81132813 1000.97769165 638.20703125 C999.29774898 635.2629278 997.6205774 632.3172952 995.94775391 629.36914062 C992.65165755 623.57043191 989.30263314 617.81229814 985.84375 612.109375 C985.18640869 611.01641113 984.52906738 609.92344727 983.85180664 608.79736328 C982.60733625 606.73504365 981.34938574 604.68077773 980.07592773 602.63623047 C979.24750366 601.25781982 979.24750366 601.25781982 978.40234375 599.8515625 C977.91241943 599.05572754 977.42249512 598.25989258 976.91772461 597.43994141 C975.6997927 594.2018431 976.10217168 592.3150584 977 589 C978.14477539 586.56005859 978.14477539 586.56005859 979.59765625 584.1484375 C980.41641235 582.77002686 980.41641235 582.77002686 981.25170898 581.36376953 C981.84927002 580.37747559 982.44683105 579.39118164 983.0625 578.375 C984.34769089 576.21433621 985.63149008 574.05284415 986.9140625 571.890625 C987.58598633 570.76205078 988.25791016 569.63347656 988.95019531 568.47070312 C992.00872697 563.31104266 994.97211602 558.09667193 997.93746948 552.88311768 C999.62108919 549.92320645 1001.30851628 546.96546853 1002.99609375 544.0078125 C1003.33018753 543.42216522 1003.66428131 542.83651794 1004.00849915 542.23312378 C1007.48483906 536.1433768 1010.99114299 530.07104833 1014.5 524 C1019.69240439 515.01459169 1024.85681108 506.01363123 1030 497 C1035.75584544 486.91266526 1041.54464237 476.84485047 1047.35546875 466.7890625 C1051.9270468 458.8726611 1056.46933782 450.93985029 1061 443 C1069.23573112 428.56860638 1077.54048957 414.17743616 1085.85449219 399.79101562 C1092.9312979 387.54341395 1099.98876447 375.28524882 1107 363 C1115.23597059 348.56874211 1123.54048868 334.1774377 1131.85449219 319.79101562 C1139.60517735 306.3771523 1147.32712427 292.94751192 1155.00170898 279.48999023 C1158.99300429 272.4942098 1163.01245602 265.51555624 1167.05297852 258.5480957 C1181.21513648 234.10394468 1192.71891199 211.22138282 1197 183 C1197.20109375 181.71222656 1197.20109375 181.71222656 1197.40625 180.3984375 C1200.25010073 158.04261091 1197.79128698 134.38946919 1191 113 C1190.67539795 111.97447021 1190.67539795 111.97447021 1190.34423828 110.92822266 C1177.2629674 70.80384578 1147.4609643 38.18170148 1110.18701172 19.07080078 C1104.59863247 16.33462849 1098.83773482 14.14502814 1093 12 C1092.11828125 11.63390625 1091.2365625 11.2678125 1090.328125 10.890625 C1084.40168588 8.49796324 1078.36737213 7.0953468 1072.125 5.8125 C1071.32296143 5.64540527 1070.52092285 5.47831055 1069.69458008 5.30615234 C1057.80093855 2.99201029 1045.79413132 2.85251852 1033.71575165 2.87136555 C1032.20617819 2.87001615 1030.69660507 2.86823071 1029.18703258 2.86605331 C1025.05610327 2.86135204 1020.92519616 2.8628156 1016.7942658 2.86533108 C1012.29336427 2.86697086 1007.79246736 2.86281777 1003.29156733 2.85942191 C995.4085732 2.85427727 987.52558521 2.85284908 979.64258957 2.85387802 C967.91979807 2.85540441 956.19701335 2.85123795 944.47422317 2.8460034 C922.31707395 2.83633594 900.15992705 2.83351938 878.00277597 2.83294634 C860.88989651 2.83248665 843.77701796 2.83042756 826.66413879 2.82724571 C821.73673455 2.82634816 816.80933031 2.82545834 811.88192606 2.82457083 C810.65692633 2.82434979 809.4319266 2.82412874 808.16980566 2.82390099 C773.71556745 2.81774732 739.26132955 2.81380037 704.80709076 2.81424427 C702.85884691 2.81426764 702.85884691 2.81426764 700.8712446 2.81429148 C694.28836919 2.81437459 687.70549378 2.81447363 681.12261838 2.81457619 C679.16157636 2.8146061 679.16157636 2.8146061 677.16091733 2.81463663 C674.51711386 2.81467706 671.87331039 2.81471886 669.22950692 2.81476202 C628.10189431 2.81537469 586.97428994 2.80786951 545.84667969 2.79418945 C499.62983375 2.77882289 453.41299323 2.77022358 407.19614458 2.77115268 C402.2662255 2.7712273 397.33630641 2.77127601 392.40638733 2.77130699 C391.19253529 2.77131865 389.97868326 2.7713303 388.72804783 2.77134231 C369.20920032 2.77137306 349.69035997 2.76499205 330.17151459 2.75637473 C310.54782021 2.74789042 290.92413629 2.74691439 271.30044109 2.75348405 C259.6492945 2.75717453 247.99817975 2.75536234 236.34703655 2.74554171 C228.55436621 2.73952955 220.76171886 2.7408509 212.96904956 2.74801221 C208.53566728 2.75188328 204.10234649 2.75269966 199.66896862 2.74455485 C163.87656166 2.67095834 163.87656166 2.67095834 129 10 Z " fill="#000000" transform="translate(0,0)"/>
<path d="M0 0 C12.24182925 10.19804856 21.15652373 25.18752175 22.86254883 41.15039062 C24.13580461 66.97393498 15.89531668 83.86721725 0.23046875 103.703125 C-2.88481412 107.66813614 -5.82719015 111.75348879 -8.76953125 115.84765625 C-9.31786621 116.61005615 -9.86620117 117.37245605 -10.43115234 118.15795898 C-11.55073491 119.71619982 -12.66970931 121.27487779 -13.78808594 122.83398438 C-22.73037853 135.29772982 -31.75142134 147.70065587 -40.88378906 160.02587891 C-42.33409476 161.99337929 -43.76947081 163.97066131 -45.19921875 165.953125 C-45.99348665 167.04297089 -46.78775725 168.13281481 -47.58203125 169.22265625 C-48.24460937 170.14175781 -48.9071875 171.06085938 -49.58984375 172.0078125 C-52.54688528 175.41645243 -54.42570516 176.04957388 -58.91796875 176.53125 C-70.79970881 176.73283641 -70.79970881 176.73283641 -74.39453125 174.16015625 C-76.56545546 171.00244831 -76.98986785 169.15019939 -76.87866211 165.35449219 C-76.06517626 161.12078587 -73.38935654 158.10441707 -70.76953125 154.78515625 C-69.57244154 153.20087973 -68.37584097 151.61623352 -67.1796875 150.03125 C-66.5623877 149.22671387 -65.94508789 148.42217773 -65.30908203 147.59326172 C-62.36883474 143.73055351 -59.53983345 139.78945961 -56.70703125 135.84765625 C-56.17094238 135.10612305 -55.63485352 134.36458984 -55.08251953 133.60058594 C-50.4481778 127.18336727 -45.92476759 120.69436495 -41.45703125 114.16015625 C-42.25625 114.2065625 -43.05546875 114.25296875 -43.87890625 114.30078125 C-59.22217714 114.8050202 -72.39218528 109.13339845 -83.70703125 98.84765625 C-92.44450999 90.59713449 -97.98864738 82.34465647 -102.45703125 71.16015625 C-102.79992187 70.32226562 -103.1428125 69.484375 -103.49609375 68.62109375 C-107.98203664 55.41481327 -106.89339267 38.82723368 -101.45703125 26.16015625 C-101.08320312 25.27199219 -100.709375 24.38382813 -100.32421875 23.46875 C-97.51332156 17.37226769 -93.84035366 12.22349094 -89.45703125 7.16015625 C-88.87308594 6.48082031 -88.28914062 5.80148438 -87.6875 5.1015625 C-64.37965814 -20.07090671 -26.29383501 -19.68902431 0 0 Z " fill="#020202" transform="translate(1016.45703125,174.83984375)"/>
<path d="M0 0 C11.04942985 8.21624271 20.34378679 19.61891923 23.3359375 33.3828125 C25.58863786 51.36191163 22.73275397 66.69413531 11.48388672 81.33544922 C4.72224804 89.72995943 -2.75918692 97.52584361 -10.14453125 105.3671875 C-12.39841636 107.76539042 -14.60470504 110.19096028 -16.75 112.6875 C-20.13665344 116.62707646 -23.69681739 120.3988489 -27.25 124.1875 C-31.33507582 128.54385452 -35.38533269 132.9090472 -39.2734375 137.44335938 C-41.95271286 140.48534296 -44.70691133 143.45543711 -47.4609375 146.4296875 C-48.0180542 147.03224365 -48.5751709 147.6347998 -49.14916992 148.25561523 C-50.51561666 149.73336953 -51.88274059 151.21049758 -53.25 152.6875 C-51.87270721 152.69963028 -51.87270721 152.69963028 -50.46759033 152.71200562 C-41.81562229 152.78993741 -33.16381014 152.87722391 -24.512043 152.97502708 C-20.06405 153.02497883 -15.61608061 153.07130898 -11.16796875 153.109375 C-6.87551581 153.14624198 -2.58326101 153.19260578 1.70902252 153.24556351 C3.34684016 153.26409995 4.98470026 153.2792107 6.62258148 153.29084396 C8.9162374 153.30771936 11.20944029 153.33675702 13.50292969 153.36865234 C14.80864929 153.38197601 16.1143689 153.39529968 17.45965576 153.4090271 C20.54599265 153.67023417 22.23939412 153.93438318 24.75 155.6875 C27.29889993 159.5108499 27.11755608 162.69214642 27.125 167.125 C27.14949219 167.88876953 27.17398437 168.65253906 27.19921875 169.43945312 C27.21904345 173.23588393 27.22112534 175.07387378 24.8515625 178.16015625 C21.78357999 180.38986101 20.10721485 180.81476262 16.36711121 180.83467102 C14.98549049 180.84540398 14.98549049 180.84540398 13.57595825 180.85635376 C12.56242279 180.85904266 11.54888733 180.86173157 10.50463867 180.86450195 C9.43948532 180.87107315 8.37433197 180.87764435 7.27690125 180.88441467 C3.74058976 180.90417806 0.20432078 180.91581654 -3.33203125 180.92578125 C-5.14029168 180.93189454 -5.14029168 180.93189454 -6.98508263 180.93813133 C-13.36448369 180.9590042 -19.74386316 180.97330115 -26.12329102 180.98266602 C-32.721116 180.99373807 -39.31860443 181.0281441 -45.91631031 181.06783772 C-50.98203673 181.09394927 -56.04768227 181.10235297 -61.11347008 181.10594749 C-63.54597944 181.11082691 -65.97848487 181.12247913 -68.41092873 181.14098549 C-71.81304427 181.1652619 -75.21427993 181.16443263 -78.61645508 181.1574707 C-79.62391785 181.17028076 -80.63138062 181.18309082 -81.66937256 181.19628906 C-86.05819086 181.16350386 -88.54680344 181.11919148 -92.35209656 178.78312683 C-96.3037647 174.4197743 -96.02869669 169.28353338 -95.8203125 163.62109375 C-94.94586246 157.58978423 -92.10789297 154.49214365 -87.86035156 150.29541016 C-85.97154943 148.40947158 -84.15451477 146.46544282 -82.3359375 144.51171875 C-79.6147328 141.58990431 -76.87553263 138.6875321 -74.1171875 135.80078125 C-70.94919522 132.4644301 -67.90244753 129.04123689 -64.88916016 125.56518555 C-62.47998161 122.80543097 -59.99464871 120.11984457 -57.5 117.4375 C-56.45293881 116.30746415 -55.40606797 115.17725191 -54.359375 114.046875 C-53.83923828 113.48548828 -53.31910156 112.92410156 -52.78320312 112.34570312 C-50.43018624 109.80084792 -48.08980997 107.2444932 -45.75 104.6875 C-42.43069819 101.06187474 -39.10483997 97.44249026 -35.76904297 93.83203125 C-34.75694692 92.73632585 -33.74555244 91.639972 -32.73486328 90.54296875 C-30.30147842 87.9024035 -27.8606843 85.26994114 -25.3984375 82.65625 C-9.59966048 66.53074979 -9.59966048 66.53074979 -2.625 45.875 C-2.93170152 37.59405891 -6.46671927 29.85600638 -12.5625 24.1875 C-13.76282063 23.3131285 -14.99306194 22.47832353 -16.25 21.6875 C-16.848125 21.27757812 -17.44625 20.86765625 -18.0625 20.4453125 C-26.19837752 15.83710062 -37.44566485 16.45362246 -46.35546875 18.34765625 C-54.65098777 21.31860957 -61.23666902 27.15868161 -65.30859375 34.953125 C-66.90277634 39.58353086 -67.12741557 44.3756442 -67.40234375 49.234375 C-68.30014237 52.89176663 -69.37889331 54.56945394 -72.44262695 56.78955078 C-75.65601733 58.38604542 -78.88094894 58.36992569 -82.375 58.25 C-83.07753906 58.26095703 -83.78007813 58.27191406 -84.50390625 58.28320312 C-87.75718049 58.2370792 -89.9378315 57.88353586 -92.70703125 56.14453125 C-94.83588076 52.75454052 -94.89219931 49.69827438 -94.8125 45.8125 C-94.80154297 45.0594458 -94.79058594 44.3063916 -94.77929688 43.53051758 C-94.20965926 28.52214863 -86.41264594 14.73451182 -75.5625 4.5625 C-53.74835686 -13.12464308 -23.65537215 -15.84258869 0 0 Z " fill="#030303" transform="translate(1009.25,839.3125)"/>
<path d="M0 0 C0.69867188 -0.01933594 1.39734375 -0.03867188 2.1171875 -0.05859375 C5.85042691 -0.02337451 7.75666184 0.43252904 10.70070171 2.76114941 C13.46432909 6.20333694 13.61893259 7.74864987 13.60127258 12.110672 C13.6081459 13.4217392 13.61501923 14.7328064 13.62210083 16.08360291 C13.60440716 17.52945522 13.58623314 18.97530172 13.56762695 20.42114258 C13.56621606 21.94895379 13.56700927 23.47676839 13.56983948 25.00457764 C13.57127345 29.14700908 13.5418873 33.2887159 13.50696969 37.43097901 C13.47570279 41.76178448 13.4727752 46.09260677 13.46684265 50.42350769 C13.45130515 58.62229774 13.41027807 66.82075424 13.3600952 75.01939744 C13.30419874 84.3542342 13.27671449 93.68908693 13.25161803 103.0240494 C13.19936204 122.22455534 13.11142168 141.42475085 13 160.625 C13.55043976 160.61389694 14.10087952 160.60279388 14.66799927 160.59135437 C20.41066213 160.48051001 26.15301986 160.40522965 31.89648438 160.3503418 C34.03821156 160.32523837 36.17985341 160.29114832 38.32128906 160.24780273 C41.4045113 160.1869685 44.48659843 160.15874819 47.5703125 160.13671875 C48.52366486 160.11091232 49.47701721 160.0851059 50.45925903 160.05851746 C54.93774701 160.05663921 58.03061076 160.15297712 61.60333252 163.02746582 C64.76373529 166.45274458 64.76373529 166.45274458 64.796875 169.65625 C64.80460938 170.38457031 64.81234375 171.11289062 64.8203125 171.86328125 C64.79710937 172.60964844 64.77390625 173.35601562 64.75 174.125 C64.77320313 174.87136719 64.79640625 175.61773437 64.8203125 176.38671875 C64.81257812 177.11503906 64.80484375 177.84335937 64.796875 178.59375 C64.79010742 179.24794922 64.78333984 179.90214844 64.77636719 180.57617188 C63.48208101 183.99178496 61.12736275 185.9303801 58 187.625 C54.24925726 188.35435625 50.56116152 188.29833365 46.74975586 188.25610352 C45.62549698 188.26325882 44.5012381 188.27041412 43.34291077 188.27778625 C39.63313962 188.29467113 35.92457708 188.27527125 32.21484375 188.25390625 C29.63464762 188.2547349 27.05445155 188.25719412 24.47425842 188.26121521 C19.06982129 188.26407303 13.66583042 188.24990265 8.26147461 188.22192383 C2.01966237 188.18985792 -4.22152514 188.18989558 -10.46338183 188.2071386 C-16.47772511 188.22301873 -22.4917783 188.2161637 -28.50613213 188.19920158 C-31.06142095 188.19401632 -33.61672777 188.19450572 -36.17201424 188.20074654 C-39.74145436 188.20619217 -43.30983137 188.18584285 -46.87915039 188.15844727 C-47.93643341 188.16497314 -48.99371643 188.17149902 -50.08303833 188.17822266 C-57.24543953 188.08467562 -57.24543953 188.08467562 -61.1325531 185.71665955 C-64.37036205 182.09010717 -64.24573911 178.98131183 -64.3125 174.3125 C-64.34988281 172.99636719 -64.38726562 171.68023437 -64.42578125 170.32421875 C-63.94219336 166.12277168 -62.96928843 164.56123513 -60 161.625 C-45.98413597 154.61706799 -28.67021236 160.625 -13 160.625 C-13.33 128.615 -13.66 96.605 -14 63.625 C-17.3 65.605 -20.6 67.585 -24 69.625 C-31.10299191 72.7334819 -38.23048437 75.24289267 -46 75.625 C-46.9075 75.69847656 -47.815 75.77195312 -48.75 75.84765625 C-49.719375 75.89792969 -50.68875 75.94820313 -51.6875 76 C-52.57824219 76.04898438 -53.46898437 76.09796875 -54.38671875 76.1484375 C-58.27901842 75.36881395 -59.65834113 73.78313107 -62 70.625 C-62.50759417 67.71081227 -62.70496569 65.5144271 -62.625 62.625 C-62.64433594 61.92632812 -62.66367188 61.22765625 -62.68359375 60.5078125 C-62.64796876 56.73156305 -62.10048321 54.76397401 -59.87890625 51.69140625 C-56.49950877 49.26576003 -54.43115588 48.88996312 -50.3125 48.5625 C-39.00830774 47.26452385 -29.75269754 43.40267706 -22.24609375 34.55859375 C-16.51094966 26.5236425 -13.55167663 18.00165845 -13.56640625 8.1328125 C-11.9555441 1.00058147 -6.46682243 -0.1789711 0 0 Z " fill="#030303" transform="translate(244,163.375)"/>
<path d="M0 0 C1.70079964 -0.00832352 1.70079964 -0.00832352 3.43595886 -0.01681519 C7.18364735 -0.02862501 10.93013045 -0.00432053 14.67773438 0.02148438 C17.28177841 0.02319516 19.88582417 0.02313013 22.48986816 0.0213623 C27.94733302 0.02141584 33.40445119 0.04114814 38.86181641 0.07324219 C45.16545045 0.11013354 51.46863051 0.11891739 57.77235842 0.11194468 C63.84380714 0.10563272 69.91507565 0.11662028 75.98649597 0.13591003 C78.56690207 0.14294482 81.14732188 0.14606399 83.72773743 0.1452179 C87.33306708 0.14701417 90.93775069 0.16838292 94.54296875 0.1953125 C95.61117355 0.1923819 96.67937836 0.18945129 97.779953 0.18643188 C106.92408531 0.29189234 106.92408531 0.29189234 110.77148438 3.61523438 C113.87716167 8.27375032 114.02161798 12.72593549 113.32373047 18.25390625 C111.71006504 25.15371706 107.81391563 31.4258007 104.47070312 37.61132812 C100.78207657 44.45042615 97.46251808 51.45136883 94.12826538 58.46864319 C90.86886367 65.32684292 87.57036192 72.16401491 84.22851562 78.98242188 C83.77036469 79.91730942 83.31221375 80.85219696 82.84017944 81.81541443 C81.90301163 83.72657284 80.96550889 85.63756705 80.02767944 87.54840088 C77.5150995 92.66831297 75.0065194 97.79018391 72.49804688 102.91210938 C72.00239731 103.92407379 71.50674774 104.93603821 70.99607849 105.97866821 C67.11503483 113.90591492 63.25231716 121.84187103 59.4057312 129.78588867 C58.46636476 131.72499923 57.52547943 133.66336607 56.58422852 135.6015625 C53.42805913 142.10477978 50.29018819 148.61614099 47.17951965 155.14126587 C45.53465168 158.5876425 43.88169914 162.03010892 42.22769165 165.47210693 C41.43073825 167.13585932 40.63751299 168.80140326 39.84823608 170.46881104 C38.75388124 172.78004301 37.64693963 175.08484015 36.53710938 177.38867188 C36.21488907 178.07761536 35.89266876 178.76655884 35.5606842 179.47637939 C33.80849129 183.0783297 32.35989849 185.69784425 28.77148438 187.61523438 C25.84382927 187.93508646 23.19281089 188.08001332 20.27148438 188.05273438 C19.51222656 188.07271484 18.75296875 188.09269531 17.97070312 188.11328125 C14.53879478 188.11027608 12.21536049 187.90108498 9.30273438 186.02539062 C7.26373566 182.81604826 7.00938113 180.4050652 6.77148438 176.61523438 C7.80932617 173.44189453 7.80932617 173.44189453 9.47070312 170.15429688 C9.77252502 169.54392578 10.07434692 168.93355469 10.38531494 168.3046875 C11.39367077 166.27465039 12.42639999 164.25804039 13.45898438 162.24023438 C14.18491352 160.78854094 14.90890674 159.33587806 15.63110352 157.88232422 C17.18403405 154.7608095 18.74554114 151.64379168 20.3125 148.52929688 C24.09168327 140.99952062 27.76179957 133.41638284 31.44476318 125.8392334 C33.14373592 122.34646765 34.84775408 118.85617441 36.55184937 115.36590576 C41.49227526 105.24700678 46.41708644 95.12058288 51.33398438 84.99023438 C57.63615955 72.0060305 63.95001543 59.02755647 70.27148438 46.05273438 C70.69334015 45.1867865 71.11519592 44.32083862 71.54983521 43.4286499 C72.73815765 40.98947247 73.92665205 38.55037893 75.11523438 36.11132812 C75.47165512 35.37979019 75.82807587 34.64825226 76.19529724 33.89454651 C78.6546567 28.84888973 78.6546567 28.84888973 79.77148438 26.61523438 C78.6425325 26.62633743 77.51358063 26.63744049 76.35041809 26.64888 C65.71229224 26.75022845 55.07426431 26.82518666 44.43576527 26.87429523 C38.96633093 26.90039135 33.49728624 26.93579026 28.02807617 26.99243164 C22.75015622 27.04675001 17.4726111 27.0766548 12.19443321 27.08962059 C10.18054999 27.09886072 8.16668733 27.11690468 6.15296364 27.14388466 C3.33240014 27.1801725 0.51338625 27.18517982 -2.30737305 27.18286133 C-3.55678429 27.2098259 -3.55678429 27.2098259 -4.83143616 27.23733521 C-9.08363154 27.19950429 -10.75092536 26.97899221 -14.24458313 24.31803894 C-16.83656199 20.78686421 -16.97035473 17.83702066 -16.85351562 13.61523438 C-16.87285156 12.9165625 -16.8921875 12.21789062 -16.91210938 11.49804688 C-16.87878999 7.96619202 -16.38133056 5.83949341 -14.38879395 2.91540527 C-9.71672033 -0.4851078 -5.6435824 -0.07007291 0 0 Z " fill="#020202" transform="translate(199.228515625,834.384765625)"/>
<path d="M0 0 C5.55101613 3.52611716 9.25238529 8.00357793 12.875 13.4375 C13.55949219 14.43330078 13.55949219 14.43330078 14.2578125 15.44921875 C18.82392703 23.57562537 17.99326732 34.85939732 16.21484375 43.73046875 C12.73344345 54.41580559 5.59021422 62.01402943 -4.125 67.4375 C-12.31964383 71.34699901 -23.28170839 72.43317577 -32.08398438 69.86621094 C-43.81588208 65.43509849 -51.15198706 58.00860306 -56.99609375 47.1484375 C-60.66565464 38.33641239 -60.51481135 27.03746215 -57.1875 18.1875 C-51.98848068 7.23450985 -43.44774678 -0.27631369 -32.24609375 -4.69921875 C-21.08482442 -7.78637835 -9.96493803 -5.3459318 0 0 Z " fill="#FDFDFD" transform="translate(996.125,192.5625)"/>
<path d="M0 0 C3.63 0 7.26 0 11 0 C14.7073719 7.20289398 17.96722744 14.48904838 21 22 C23.1155131 19.8844869 23.79076337 18.42357059 24.91015625 15.68359375 C25.26013672 14.83732422 25.61011719 13.99105469 25.97070312 13.11914062 C26.33099609 12.23419922 26.69128906 11.34925781 27.0625 10.4375 C27.78040039 8.68531479 28.50034439 6.93396501 29.22265625 5.18359375 C29.53984619 4.40556396 29.85703613 3.62753418 30.18383789 2.82592773 C31 1 31 1 32 0 C35.63 0 39.26 0 43 0 C43 12.54 43 25.08 43 38 C40.03 38 37.06 38 34 38 C33.67 31.4 33.34 24.8 33 18 C30.36 24.6 27.72 31.2 25 38 C22.69 38 20.38 38 18 38 C15.36 31.73 12.72 25.46 10 19 C9.67 25.27 9.34 31.54 9 38 C6.03 38 3.06 38 0 38 C0 25.46 0 12.92 0 0 Z " fill="#F3F3F3" transform="translate(571,831)"/>
<path d="M0 0 C21.34482759 0 21.34482759 0 28.8125 4.8125 C33.1484636 9.1484636 34.21175879 12.91020976 34.4375 18.9375 C34.24981129 25.82226306 32.62457274 29.51002074 27.5625 34.3125 C21.606975 38.2344311 16.62921274 38.25156935 9.6875 38.125 C4.8921875 38.063125 4.8921875 38.063125 0 38 C0 25.46 0 12.92 0 0 Z " fill="#F5F5F5" transform="translate(593,931)"/>
<path d="M0 0 C3.63 0 7.26 0 11 0 C12.50437846 3.45648861 14.00367422 6.91502747 15.5 10.375 C16.14388672 11.85226562 16.14388672 11.85226562 16.80078125 13.359375 C17.40986328 14.77089844 17.40986328 14.77089844 18.03125 16.2109375 C18.40830078 17.08024902 18.78535156 17.94956055 19.17382812 18.84521484 C20 21 20 21 20 23 C20.66 23 21.32 23 22 23 C22.37125 21.80375 22.7425 20.6075 23.125 19.375 C25.32154521 12.74291907 28.19134431 6.38991894 31 0 C34.63 0 38.26 0 42 0 C42 12.54 42 25.08 42 38 C39.36 38 36.72 38 34 38 C33.505 27.605 33.505 27.605 33 17 C30.03 23.93 27.06 30.86 24 38 C22.02 38 20.04 38 18 38 C17.0587556 36.00175947 16.12220229 34.00130904 15.1875 32 C14.66542969 30.88625 14.14335938 29.7725 13.60546875 28.625 C11.91763329 24.81402359 10.46348696 20.90263189 9 17 C8.67 23.93 8.34 30.86 8 38 C5.36 38 2.72 38 0 38 C0 25.46 0 12.92 0 0 Z " fill="#FAFAFA" transform="translate(546,881)"/>
<path d="M0 0 C5.0428125 -0.0928125 5.0428125 -0.0928125 10.1875 -0.1875 C11.76374146 -0.22846802 11.76374146 -0.22846802 13.37182617 -0.27026367 C19.65281702 -0.32627404 23.11830692 0.40647623 27.875 4.6875 C29.56395913 8.15924933 29.00101327 11.33463562 28 15 C27.01 16.485 27.01 16.485 26 18 C26.639375 18.680625 27.27875 19.36125 27.9375 20.0625 C30.39565865 23.56351384 30.92392968 25.74006222 31 30 C29.38652672 33.73646444 27.44419251 35.88098797 24 38 C21.34277344 38.34057617 21.34277344 38.34057617 18.359375 38.29296875 C17.39483398 38.28547607 16.43029297 38.2779834 15.43652344 38.27026367 C14.2199707 38.24295166 13.00341797 38.21563965 11.75 38.1875 C5.93375 38.0946875 5.93375 38.0946875 0 38 C0 25.46 0 12.92 0 0 Z " fill="#F5F5F5" transform="translate(558,931)"/>
<path d="M0 0 C4.71210243 2.14672341 7.12216969 4.75141117 9.50390625 9.31640625 C9.50390625 9.97640625 9.50390625 10.63640625 9.50390625 11.31640625 C7.92143918 11.39794558 6.33774352 11.45584182 4.75390625 11.50390625 C3.8721875 11.53871094 2.99046875 11.57351563 2.08203125 11.609375 C-0.98257975 11.26112375 -2.11641392 10.19688644 -4.49609375 8.31640625 C-9.28391475 7.78442614 -11.3601192 7.59131611 -15.43359375 10.19140625 C-18.66247772 13.51813518 -18.71919448 15.73495568 -18.65234375 20.34765625 C-18.45918348 22.78147571 -17.93916131 24.34168223 -16.49609375 26.31640625 C-13.23613789 28.48971016 -12.26629409 28.56562084 -8.49609375 28.50390625 C-7.62984375 28.49746094 -6.76359375 28.49101563 -5.87109375 28.484375 C-3.3468191 28.40471062 -3.3468191 28.40471062 -0.49609375 27.31640625 C-0.16609375 26.32640625 0.16390625 25.33640625 0.50390625 24.31640625 C-2.13609375 23.98640625 -4.77609375 23.65640625 -7.49609375 23.31640625 C-7.49609375 20.67640625 -7.49609375 18.03640625 -7.49609375 15.31640625 C-1.55609375 15.31640625 4.38390625 15.31640625 10.50390625 15.31640625 C10.50390625 22.57640625 10.50390625 29.83640625 10.50390625 37.31640625 C8.19390625 37.31640625 5.88390625 37.31640625 3.50390625 37.31640625 C3.17390625 36.32640625 2.84390625 35.33640625 2.50390625 34.31640625 C1.74078125 34.79078125 0.97765625 35.26515625 0.19140625 35.75390625 C-4.20648159 38.31081779 -7.44855838 38.72346555 -12.49609375 38.31640625 C-19.92873203 36.08916019 -23.91327863 32.74408931 -27.80859375 26.06640625 C-29.15658422 20.67444437 -29.16121731 15.4364876 -27.49609375 10.12890625 C-20.52020117 0.31905731 -11.89555871 -3.25778212 0 0 Z " fill="#F5F5F5" transform="translate(659.49609375,931.68359375)"/>
<path d="M0 0 C9 0 9 0 11.1640625 2.0546875 C11.64617188 2.98539063 12.12828125 3.91609375 12.625 4.875 C13.17542969 5.86886719 13.72585938 6.86273437 14.29296875 7.88671875 C14.85628906 8.91410156 15.41960938 9.94148437 16 11 C17.28661615 12.91349396 18.597773 14.81080827 19.9375 16.6875 C20.948125 18.110625 21.95875 19.53375 23 21 C23.33 14.07 23.66 7.14 24 0 C26.64 0 29.28 0 32 0 C32 12.54 32 25.08 32 38 C24 38 24 38 21.96875 36.453125 C21.4840625 35.72609375 20.999375 34.9990625 20.5 34.25 C19.94183594 33.44175781 19.38367188 32.63351562 18.80859375 31.80078125 C18.21175781 30.87652344 17.61492188 29.95226562 17 29 C16.26910156 27.92105469 15.53820312 26.84210937 14.78515625 25.73046875 C12.83204749 22.83684716 10.91320666 19.92015753 9 17 C8.67 23.93 8.34 30.86 8 38 C5.36 38 2.72 38 0 38 C0 25.46 0 12.92 0 0 Z " fill="#FBFBFB" transform="translate(621,831)"/>
<path d="M0 0 C3.63 0 7.26 0 11 0 C12.83606076 4.76774309 14.66906622 9.53664521 16.49926758 14.30664062 C17.1221293 15.92870676 17.74582031 17.55045471 18.37036133 19.171875 C19.26863038 21.50437315 20.16389737 23.8380045 21.05859375 26.171875 C21.3377916 26.89493835 21.61698944 27.61800171 21.90464783 28.36297607 C23.13055263 31.5686959 24.16583338 34.66333353 25 38 C21.7 38 18.4 38 15 38 C14.34 36.02 13.68 34.04 13 32 C8.05 32 3.1 32 -2 32 C-2.66 33.98 -3.32 35.96 -4 38 C-6.97 38 -9.94 38 -13 38 C-12.37368244 33.20364067 -11.00517739 28.90609863 -9.27734375 24.4140625 C-9.01240616 23.71227875 -8.74746857 23.010495 -8.47450256 22.28744507 C-7.6339973 20.06463276 -6.78588461 17.84481531 -5.9375 15.625 C-5.36342575 14.11086904 -4.78985281 12.59654791 -4.21679688 11.08203125 C-2.81698779 7.38579558 -1.4103525 3.69222483 0 0 Z " fill="#F7F7F7" transform="translate(605,881)"/>
<path d="M0 0 C3.63 0 7.26 0 11 0 C12.99591179 5.25026416 14.98968494 10.50133336 16.98144531 15.75317383 C17.65988796 17.54115967 18.33892346 19.32892068 19.01855469 21.11645508 C19.99308243 23.67991764 20.96550309 26.24417068 21.9375 28.80859375 C22.24373291 29.6127623 22.54996582 30.41693085 22.86547852 31.24546814 C25 36.88612829 25 36.88612829 25 38 C21.7 38 18.4 38 15 38 C14.34 36.02 13.68 34.04 13 32 C8.05 32 3.1 32 -2 32 C-2.66 33.98 -3.32 35.96 -4 38 C-7.3 38 -10.6 38 -14 38 C-9.58329631 25.23505714 -4.85452618 12.60451849 0 0 Z " fill="#F7F7F7" transform="translate(479,831)"/>
<path d="M0 0 C2.97 0 5.94 0 9 0 C9.01981934 0.77190674 9.03963867 1.54381348 9.06005859 2.33911133 C9.15521143 5.83058958 9.26493047 9.32146152 9.375 12.8125 C9.4059375 14.02744141 9.436875 15.24238281 9.46875 16.49414062 C9.50742187 17.65751953 9.54609375 18.82089844 9.5859375 20.01953125 C9.6173584 21.09307861 9.6487793 22.16662598 9.68115234 23.27270508 C9.81592307 26.2160765 9.81592307 26.2160765 12 29 C13.90457929 29.43827201 13.90457929 29.43827201 16 29.3125 C17.051875 29.30669922 17.051875 29.30669922 18.125 29.30078125 C20.2416577 29.14912946 20.2416577 29.14912946 22 27 C22.37239227 24.18597317 22.37239227 24.18597317 22.4140625 20.8984375 C22.45273437 19.68671875 22.49140625 18.475 22.53125 17.2265625 C22.57765625 15.32003906 22.57765625 15.32003906 22.625 13.375 C22.66367187 12.09625 22.70234375 10.8175 22.7421875 9.5 C22.83671049 6.33347983 22.92226357 3.1669696 23 0 C25.97 0 28.94 0 32 0 C32.08760181 4.18736668 32.14059435 8.37449531 32.1875 12.5625 C32.21263672 13.74392578 32.23777344 14.92535156 32.26367188 16.14257812 C32.31738907 22.53492393 32.25682431 27.41909343 29 33 C24.96239014 36.93135697 21.24297983 38.70375738 15.6875 39.4375 C10.92920053 38.87295599 7.42620893 37.39088719 4 34 C-0.9248794 27.40483196 -0.476175 20.41612494 -0.25 12.5 C-0.23195313 11.29601562 -0.21390625 10.09203125 -0.1953125 8.8515625 C-0.14846554 5.90020395 -0.08288005 2.95052964 0 0 Z " fill="#F0F0F0" transform="translate(533,831)"/>
<path d="M0 0 C2.56939316 1.75470752 4.07618617 3.02509132 5.5625 5.75 C5.5625 7.07 5.5625 8.39 5.5625 9.75 C4.10507537 9.83096803 2.64637193 9.88917774 1.1875 9.9375 C0.37539063 9.97230469 -0.43671875 10.00710938 -1.2734375 10.04296875 C-1.98757813 9.94628906 -2.70171875 9.84960938 -3.4375 9.75 C-4.0975 8.76 -4.7575 7.77 -5.4375 6.75 C-8.02130177 6.49969023 -8.02130177 6.49969023 -10.4375 6.75 C-10.7675 8.07 -11.0975 9.39 -11.4375 10.75 C-10.85742188 11.00394531 -10.27734375 11.25789062 -9.6796875 11.51953125 C3.18866822 17.18925234 3.18866822 17.18925234 5.5625 20.75 C6.23947143 24.4911579 6.39172523 28.18405275 4.58203125 31.6015625 C2.33124922 34.41330866 0.03404919 36.72895612 -3.4375 37.75 C-8.89232377 38.26460602 -12.63451627 37.3780477 -17.4375 34.75 C-19.875 32.3125 -19.875 32.3125 -21.4375 29.75 C-21.4375 28.43 -21.4375 27.11 -21.4375 25.75 C-16.00599315 25.48287671 -16.00599315 25.48287671 -13.4375 25.75 C-12.4375 26.75 -11.4375 27.75 -10.4375 28.75 C-6.79208155 28.51522801 -6.79208155 28.51522801 -3.4375 27.75 C-3.4375 26.76 -3.4375 25.77 -3.4375 24.75 C-4.40171875 24.38648438 -5.3659375 24.02296875 -6.359375 23.6484375 C-7.63581111 23.14161728 -8.91183134 22.63374881 -10.1875 22.125 C-10.82171875 21.88910156 -11.4559375 21.65320313 -12.109375 21.41015625 C-16.88572998 19.46976204 -19.04031441 17.2714243 -21.4375 12.75 C-22.10704002 8.73275986 -21.62981067 7.10714838 -19.6875 3.5 C-14.60610636 -2.71059223 -7.19180616 -2.61520224 0 0 Z " fill="#F6F6F6" transform="translate(534.4375,882.25)"/>
<path d="M0 0 C3.85544798 1.99657127 5.59805092 3.39707638 8 7 C8.56037358 13.27618412 8.56037358 13.27618412 6.5 15.9375 C5.7575 16.4634375 5.7575 16.4634375 5 17 C5.28875 17.5775 5.5775 18.155 5.875 18.75 C6.24625 19.4925 6.6175 20.235 7 21 C7.391875 21.598125 7.78375 22.19625 8.1875 22.8125 C9.45100146 26.21423471 8.91359035 28.52835668 8 32 C5.11229109 35.60963614 2.48856342 37.82442387 -2 39 C-6.28317228 39.46725516 -8.42893678 39.30749558 -12.25 37.25 C-14.69408299 35.25029574 -16.45944676 33.73876132 -18 31 C-18 29.68 -18 28.36 -18 27 C-15.03 27 -12.06 27 -9 27 C-8.67 27.66 -8.34 28.32 -8 29 C-6.02 29 -4.04 29 -2 29 C-1.67 27.35 -1.34 25.7 -1 24 C-5.455 23.01 -5.455 23.01 -10 22 C-10 19.69 -10 17.38 -10 15 C-6.535 14.505 -6.535 14.505 -3 14 C-2.67 12.35 -2.34 10.7 -2 9 C-4.41645782 8.83312552 -4.41645782 8.83312552 -7 9 C-7.66 9.66 -8.32 10.32 -9 11 C-11.68839385 11.26991906 -14.29141936 11.08737357 -17 11 C-17.3125 8.8125 -17.3125 8.8125 -17 6 C-11.76402602 -0.06270671 -7.78092618 -0.88311125 0 0 Z " fill="#F6F6F6" transform="translate(662,881)"/>
<path d="M0 0 C2.97 0 5.94 0 9 0 C9 9.9 9 19.8 9 30 C13.95 30 18.9 30 24 30 C24 32.64 24 35.28 24 38 C16.08 38 8.16 38 0 38 C0 25.46 0 12.92 0 0 Z " fill="#F3F3F3" transform="translate(507,831)"/>
<path d="M0 0 C9.55172414 0 9.55172414 0 14 3 C16.39398482 5.87278179 16.96024433 7.72667978 17.5 11.4375 C16.83624442 16.16675851 15.34318209 17.65681791 12 21 C10 22 10 22 0 22 C0 14.74 0 7.48 0 0 Z " fill="#060606" transform="translate(602,939)"/>
<path d="M0 0 C2.64 0 5.28 0 8 0 C8 12.54 8 25.08 8 38 C5.36 38 2.72 38 0 38 C0 25.46 0 12.92 0 0 Z " fill="#FDFDFD" transform="translate(661,831)"/>
<path d="M0 0 C1.79133978 -0.05391993 3.58313899 -0.09275571 5.375 -0.125 C6.37273438 -0.14820313 7.37046875 -0.17140625 8.3984375 -0.1953125 C11 0 11 0 13 2 C12.44444444 6.55555556 12.44444444 6.55555556 11 8 C9.14712498 8.07226502 7.29166122 8.0838122 5.4375 8.0625 C4.42558594 8.05347656 3.41367187 8.04445313 2.37109375 8.03515625 C1.58863281 8.02355469 0.80617188 8.01195312 0 8 C0 5.36 0 2.72 0 0 Z " fill="#080808" transform="translate(567,953)"/>
<path d="M0 0 C3.63 0 7.26 0 11 0 C11.33 1.65 11.66 3.3 12 5 C10 7 10 7 7.6171875 7.1953125 C6.71226562 7.17210937 5.80734375 7.14890625 4.875 7.125 C3.50988281 7.09792969 3.50988281 7.09792969 2.1171875 7.0703125 C1.41851563 7.04710937 0.71984375 7.02390625 0 7 C0 4.69 0 2.38 0 0 Z " fill="#0E0E0E" transform="translate(566,939)"/>
<path d="M0 0 C2.18614424 2.18614424 2.68256535 3.53879949 3.625 6.4375 C3.88539063 7.21996094 4.14578125 8.00242187 4.4140625 8.80859375 C5 11 5 11 5 14 C2.03 14 -0.94 14 -4 14 C-3.46148032 8.72250715 -2.22656164 4.74354436 0 0 Z " fill="#1F1F1F" transform="translate(484,841)"/>
<path d="M0 0 C2.03529587 2.03529587 2.6384272 3.23417382 3.625 5.875 C3.88539063 6.55304687 4.14578125 7.23109375 4.4140625 7.9296875 C5 10 5 10 5 14 C2.03 14 -0.94 14 -4 14 C-2 4.42857143 -2 4.42857143 0 0 Z " fill="#1D1D1D" transform="translate(610,891)"/>
</svg>
